<svg aria-hidden="true" style="position: absolute; width: 0; height: 0; overflow: hidden;" version="1.1" xmlns="http://www.w3.org/2000/svg" xmlns:xlink="http://www.w3.org/1999/xlink">
<defs>
<symbol id="figma" viewBox="0 0 22 32">
<path fill="#1abcfe" style="fill: var(--color11, #1abcfe)" d="M11 16c0-1.415 0.562-2.771 1.562-3.771s2.357-1.562 3.771-1.562c1.414 0 2.771 0.562 3.771 1.562s1.562 2.357 1.562 3.771-0.562 2.771-1.562 3.771c-1 1-2.357 1.562-3.771 1.562s-2.771-0.562-3.771-1.562-1.562-2.357-1.562-3.771z"></path>
<path fill="#0acf83" style="fill: var(--color12, #0acf83)" d="M0.333 26.667c0-1.415 0.562-2.771 1.562-3.771s2.357-1.562 3.771-1.562h5.333v5.333c0 1.415-0.562 2.771-1.562 3.771s-2.357 1.562-3.771 1.562c-1.415 0-2.771-0.562-3.771-1.562s-1.562-2.357-1.562-3.771z"></path>
<path fill="#ff7262" style="fill: var(--color13, #ff7262)" d="M11 0v10.667h5.333c1.414 0 2.771-0.562 3.771-1.562s1.562-2.357 1.562-3.771c0-1.415-0.562-2.771-1.562-3.771s-2.357-1.562-3.771-1.562h-5.333z"></path>
<path fill="#f24e1e" style="fill: var(--color14, #f24e1e)" d="M0.333 5.333c0 1.414 0.562 2.771 1.562 3.771s2.357 1.562 3.771 1.562h5.333v-10.667h-5.333c-1.415 0-2.771 0.562-3.771 1.562s-1.562 2.357-1.562 3.771z"></path>
<path fill="#a259ff" style="fill: var(--color15, #a259ff)" d="M0.333 16c0 1.414 0.562 2.771 1.562 3.771s2.357 1.562 3.771 1.562h5.333v-10.667h-5.333c-1.415 0-2.771 0.562-3.771 1.562s-1.562 2.357-1.562 3.771z"></path>
</symbol>
<symbol id="link" viewBox="0 0 32 32">
<path fill="none" stroke="#d1d5db" style="stroke: var(--color1, #d1d5db)" stroke-linejoin="round" stroke-linecap="round" stroke-miterlimit="4" stroke-width="2.6667" d="M24 17.333v8c0 0.707-0.281 1.385-0.781 1.886s-1.178 0.781-1.886 0.781h-14.667c-0.707 0-1.386-0.281-1.886-0.781s-0.781-1.178-0.781-1.886v-14.667c0-0.707 0.281-1.386 0.781-1.886s1.178-0.781 1.886-0.781h8"></path>
<path fill="none" stroke="#d1d5db" style="stroke: var(--color1, #d1d5db)" stroke-linejoin="round" stroke-linecap="round" stroke-miterlimit="4" stroke-width="2.6667" d="M20 4h8v8"></path>
<path fill="none" stroke="#d1d5db" style="stroke: var(--color1, #d1d5db)" stroke-linejoin="round" stroke-linecap="round" stroke-miterlimit="4" stroke-width="2.6667" d="M13.333 18.667l14.667-14.667"></path>
</symbol>
<symbol id="phone" viewBox="0 0 32 32">
<path fill="none" stroke="#d1d5db" style="stroke: var(--color1, #d1d5db)" stroke-linejoin="round" stroke-linecap="round" stroke-miterlimit="4" stroke-width="2.6667" d="M29.333 22.56v4c0.002 0.371-0.075 0.739-0.223 1.079s-0.367 0.646-0.641 0.897c-0.274 0.251-0.597 0.442-0.948 0.561s-0.725 0.163-1.094 0.13c-4.103-0.446-8.044-1.848-11.507-4.093-3.222-2.047-5.953-4.778-8-8-2.253-3.478-3.656-7.439-4.093-11.56-0.033-0.369 0.010-0.74 0.129-1.091s0.308-0.673 0.558-0.947c0.25-0.273 0.553-0.492 0.892-0.641s0.705-0.227 1.075-0.227h4c0.647-0.006 1.274 0.223 1.765 0.645s0.811 1.008 0.902 1.649c0.169 1.28 0.482 2.537 0.933 3.747 0.179 0.477 0.218 0.996 0.112 1.495s-0.353 0.956-0.712 1.319l-1.693 1.693c1.898 3.338 4.662 6.102 8 8l1.693-1.693c0.363-0.359 0.82-0.606 1.319-0.712s1.017-0.067 1.494 0.112c1.21 0.451 2.467 0.765 3.747 0.933 0.648 0.091 1.239 0.418 1.662 0.917s0.647 1.136 0.631 1.79z"></path>
</symbol>
<symbol id="copy" viewBox="0 0 33 32">
<path fill="none" stroke="#d1d5db" style="stroke: var(--color1, #d1d5db)" stroke-linejoin="round" stroke-linecap="round" stroke-miterlimit="4" stroke-width="2.6667" d="M27.333 10.667h-13.333c-1.473 0-2.667 1.194-2.667 2.667v13.333c0 1.473 1.194 2.667 2.667 2.667h13.333c1.473 0 2.667-1.194 2.667-2.667v-13.333c0-1.473-1.194-2.667-2.667-2.667z"></path>
<path fill="none" stroke="#d1d5db" style="stroke: var(--color1, #d1d5db)" stroke-linejoin="round" stroke-linecap="round" stroke-miterlimit="4" stroke-width="2.6667" d="M6 21.333c-1.467 0-2.667-1.2-2.667-2.667v-13.333c0-1.467 1.2-2.667 2.667-2.667h13.333c1.467 0 2.667 1.2 2.667 2.667"></path>
</symbol>
<symbol id="ukraine" viewBox="0 0 32 32">
<path fill="#ffda44" style="fill: var(--color1, #ffda44)" d="M16 32c8.837 0 16-7.163 16-16s-7.163-16-16-16c-8.837 0-16 7.163-16 16s7.163 16 16 16z"></path>
<path fill="#338af3" style="fill: var(--color2, #338af3)" d="M0 16c0-8.836 7.163-16 16-16s16 7.163 16 16z"></path>
</symbol>
<symbol id="login" viewBox="0 0 32 32">
<path fill="none" stroke="#9fb7ce" style="stroke: var(--color1, #9fb7ce)" stroke-linejoin="round" stroke-linecap="round" stroke-miterlimit="4" stroke-width="3.2" d="M20 4h1.6c2.24 0 3.36 0 4.216 0.436 0.753 0.383 1.364 0.995 1.748 1.748 0.436 0.856 0.436 1.976 0.436 4.216v11.2c0 2.24 0 3.36-0.436 4.216-0.384 0.753-0.995 1.364-1.748 1.748-0.856 0.436-1.976 0.436-4.216 0.436h-1.6"></path>
<path fill="none" stroke="#9fb7ce" style="stroke: var(--color1, #9fb7ce)" stroke-linejoin="round" stroke-linecap="round" stroke-miterlimit="4" stroke-width="3.2" d="M13.333 9.333l6.667 6.667M20 16l-6.667 6.667M20 16h-16"></path>
</symbol>
</defs>
</svg>
